<?xml version="1.0" encoding="UTF-8" standalone="no"?>
<svg
   width="16"
   height="16"
   viewBox="0 0 16 16"
   fill="none"
   version="1.1"
   id="svg4"
   sodipodi:docname="icon-public.svg"
   inkscape:version="1.2.2 (b0a8486541, 2022-12-01)"
   xmlns:inkscape="http://www.inkscape.org/namespaces/inkscape"
   xmlns:sodipodi="http://sodipodi.sourceforge.net/DTD/sodipodi-0.dtd"
   xmlns="http://www.w3.org/2000/svg"
   xmlns:svg="http://www.w3.org/2000/svg">
  <defs
     id="defs8" />
  <sodipodi:namedview
     id="namedview6"
     pagecolor="#ffffff"
     bordercolor="#666666"
     borderopacity="1.0"
     inkscape:showpageshadow="2"
     inkscape:pageopacity="0.0"
     inkscape:pagecheckerboard="0"
     inkscape:deskcolor="#d1d1d1"
     showgrid="false"
     inkscape:zoom="47.5625"
     inkscape:cx="8.0105125"
     inkscape:cy="7.9894875"
     inkscape:window-width="1920"
     inkscape:window-height="1023"
     inkscape:window-x="0"
     inkscape:window-y="0"
     inkscape:window-maximized="1"
     inkscape:current-layer="svg4" />
  <path
     d="M5.53589 11.2727V4.72729H8.11828C8.61472 4.72729 9.03766 4.82211 9.3871 5.01174C9.73653 5.19924 10.0029 5.46025 10.1861 5.79477C10.3715 6.12715 10.4642 6.51068 10.4642 6.94533C10.4642 7.37999 10.3704 7.76352 10.1829 8.0959C9.99541 8.42829 9.72374 8.68717 9.36792 8.87254C9.01423 9.05791 8.58596 9.15059 8.08312 9.15059H6.43717V8.04157H7.8594C8.12573 8.04157 8.34519 7.99576 8.51778 7.90414C8.69249 7.81039 8.82247 7.68149 8.90769 7.51742C8.99505 7.35123 9.03873 7.16053 9.03873 6.94533C9.03873 6.72801 8.99505 6.53837 8.90769 6.37644C8.82247 6.21238 8.69249 6.0856 8.51778 5.99612C8.34306 5.9045 8.12147 5.85869 7.85301 5.85869H6.91977V11.2727H5.53589Z"
     fill="#BBBBBB"
     id="path2" />
</svg>
