<svg xmlns="http://www.w3.org/2000/svg" xml:space="preserve" width="32" height="32" viewBox="0 0 512 512">
    <path fill="currentColor" d="M352 140.8c-14.111 0-25.595 11.482-25.6 25.6 0 14.116 11.483 25.6 25.597 25.6H352c14.116 0 25.6-11.484 25.6-25.6 0-14.116-11.484-25.6-25.6-25.6z"/>
    <path fill="currentColor" d="M352 70.4c-52.934 0-96 43.066-96 96s43.066 96 96 96 96-43.066 96-96-43.066-96-96-96zm0 153.6c-31.761 0-57.6-25.839-57.6-57.6 0-31.761 25.839-57.6 57.6-57.6 31.761 0 57.6 25.839 57.6 57.6 0 31.761-25.839 57.6-57.6 57.6z"/>
    <path fill="currentColor" d="M192 7.282C84.508 17.015 0 107.616 0 217.6v19.2h78.177c8.489 59.081 55.543 105.869 114.752 113.953C201.939 437.63 275.579 505.6 364.8 505.6H512V6.4l-320 .882zm0 304.386c-37.56-7.654-67.213-37.308-74.868-74.868H192v74.868zm0-113.268H39.46C48.342 118.428 112.028 54.742 192 45.86V198.4zm281.6 268.8H364.8c-74.108 0-134.4-60.292-134.4-134.4v-288h243.2v422.4z"/>
</svg>
